<mxfile host="app.diagrams.net" modified="2023-06-27T10:09:32.268Z" agent="Mozilla/5.0 (Windows NT 10.0; Win64; x64) AppleWebKit/537.36 (KHTML, like Gecko) Chrome/114.0.0.0 Safari/537.36" etag="MC1AANfvm7H-J9drpNcZ" version="21.1.4" type="google">
  <diagram name="Seite-1" id="vnna6ChTiZbF5_iT1kXb">
    <mxGraphModel grid="1" page="1" gridSize="10" guides="1" tooltips="1" connect="1" arrows="1" fold="1" pageScale="1" pageWidth="827" pageHeight="1169" math="0" shadow="0">
      <root>
        <mxCell id="0" />
        <mxCell id="1" parent="0" />
        <mxCell id="PiAlQ7NmxUBOU-2joK4R-46" value="" style="rounded=0;whiteSpace=wrap;html=1;fillColor=#d5e8d4;strokeColor=#82b366;" vertex="1" parent="1">
          <mxGeometry x="270" y="757" width="165" height="220" as="geometry" />
        </mxCell>
        <mxCell id="PiAlQ7NmxUBOU-2joK4R-40" value="" style="rounded=0;whiteSpace=wrap;html=1;fillColor=#dae8fc;strokeColor=#6c8ebf;" vertex="1" parent="1">
          <mxGeometry x="239.49" y="101" width="230" height="150" as="geometry" />
        </mxCell>
        <mxCell id="PiAlQ7NmxUBOU-2joK4R-39" value="" style="rounded=0;whiteSpace=wrap;html=1;fillColor=#ffe6cc;strokeColor=#d79b00;" vertex="1" parent="1">
          <mxGeometry x="349" y="287" width="170" height="330" as="geometry" />
        </mxCell>
        <mxCell id="PiAlQ7NmxUBOU-2joK4R-38" value="" style="rounded=0;whiteSpace=wrap;html=1;fillColor=#ffe6cc;strokeColor=#d79b00;" vertex="1" parent="1">
          <mxGeometry x="122" y="305" width="170" height="270" as="geometry" />
        </mxCell>
        <mxCell id="PiAlQ7NmxUBOU-2joK4R-47" value="" style="edgeStyle=orthogonalEdgeStyle;rounded=0;orthogonalLoop=1;jettySize=auto;html=1;" edge="1" parent="1" source="PiAlQ7NmxUBOU-2joK4R-1" target="PiAlQ7NmxUBOU-2joK4R-2">
          <mxGeometry relative="1" as="geometry" />
        </mxCell>
        <mxCell id="PiAlQ7NmxUBOU-2joK4R-1" value="&lt;b&gt;&lt;font style=&quot;font-size: 24px;&quot;&gt;Video&lt;/font&gt;&lt;/b&gt;" style="rounded=1;whiteSpace=wrap;html=1;" vertex="1" parent="1">
          <mxGeometry x="296" width="120" height="60" as="geometry" />
        </mxCell>
        <mxCell id="PiAlQ7NmxUBOU-2joK4R-7" value="" style="edgeStyle=orthogonalEdgeStyle;rounded=0;orthogonalLoop=1;jettySize=auto;html=1;" edge="1" parent="1" source="PiAlQ7NmxUBOU-2joK4R-2" target="PiAlQ7NmxUBOU-2joK4R-6">
          <mxGeometry relative="1" as="geometry">
            <Array as="points">
              <mxPoint x="355" y="270" />
              <mxPoint x="207" y="270" />
            </Array>
          </mxGeometry>
        </mxCell>
        <mxCell id="PiAlQ7NmxUBOU-2joK4R-18" style="edgeStyle=orthogonalEdgeStyle;rounded=0;orthogonalLoop=1;jettySize=auto;html=1;" edge="1" parent="1" source="PiAlQ7NmxUBOU-2joK4R-2" target="PiAlQ7NmxUBOU-2joK4R-19">
          <mxGeometry relative="1" as="geometry">
            <mxPoint x="440" y="200" as="targetPoint" />
            <Array as="points">
              <mxPoint x="355" y="270" />
              <mxPoint x="433" y="270" />
            </Array>
          </mxGeometry>
        </mxCell>
        <mxCell id="PiAlQ7NmxUBOU-2joK4R-2" value="&lt;b&gt;Images/Screen Shots&lt;/b&gt;&lt;br style=&quot;font-size: 17px;&quot;&gt;&lt;ul style=&quot;font-size: 17px;&quot;&gt;&lt;li style=&quot;font-size: 17px;&quot;&gt;Zeitstempel&lt;/li&gt;&lt;li style=&quot;font-size: 17px;&quot;&gt;Video Title&lt;/li&gt;&lt;/ul&gt;" style="whiteSpace=wrap;html=1;rounded=1;fontSize=17;" vertex="1" parent="1">
          <mxGeometry x="260" y="123.5" width="190" height="105" as="geometry" />
        </mxCell>
        <mxCell id="PiAlQ7NmxUBOU-2joK4R-9" value="" style="edgeStyle=orthogonalEdgeStyle;rounded=0;orthogonalLoop=1;jettySize=auto;html=1;" edge="1" parent="1" source="PiAlQ7NmxUBOU-2joK4R-6" target="PiAlQ7NmxUBOU-2joK4R-8">
          <mxGeometry relative="1" as="geometry" />
        </mxCell>
        <mxCell id="PiAlQ7NmxUBOU-2joK4R-6" value="&lt;b&gt;LLM&lt;br&gt;MiniGPT4&lt;/b&gt;" style="whiteSpace=wrap;html=1;fontSize=17;rounded=1;" vertex="1" parent="1">
          <mxGeometry x="133.25" y="315" width="147.5" height="60" as="geometry" />
        </mxCell>
        <mxCell id="PiAlQ7NmxUBOU-2joK4R-11" value="" style="edgeStyle=orthogonalEdgeStyle;rounded=0;orthogonalLoop=1;jettySize=auto;html=1;" edge="1" parent="1" source="PiAlQ7NmxUBOU-2joK4R-8" target="PiAlQ7NmxUBOU-2joK4R-10">
          <mxGeometry relative="1" as="geometry" />
        </mxCell>
        <mxCell id="PiAlQ7NmxUBOU-2joK4R-8" value="QualitÃ¤t?" style="whiteSpace=wrap;html=1;fontSize=17;rounded=1;" vertex="1" parent="1">
          <mxGeometry x="148" y="395" width="120" height="60" as="geometry" />
        </mxCell>
        <mxCell id="PiAlQ7NmxUBOU-2joK4R-24" style="edgeStyle=orthogonalEdgeStyle;rounded=0;orthogonalLoop=1;jettySize=auto;html=1;" edge="1" parent="1" source="PiAlQ7NmxUBOU-2joK4R-10" target="PiAlQ7NmxUBOU-2joK4R-22">
          <mxGeometry relative="1" as="geometry">
            <Array as="points">
              <mxPoint x="207" y="630" />
              <mxPoint x="355" y="630" />
            </Array>
          </mxGeometry>
        </mxCell>
        <mxCell id="PiAlQ7NmxUBOU-2joK4R-10" value="Haystack" style="whiteSpace=wrap;html=1;fontSize=17;rounded=1;" vertex="1" parent="1">
          <mxGeometry x="147" y="485" width="120" height="60" as="geometry" />
        </mxCell>
        <mxCell id="PiAlQ7NmxUBOU-2joK4R-31" style="edgeStyle=orthogonalEdgeStyle;rounded=0;orthogonalLoop=1;jettySize=auto;html=1;" edge="1" parent="1" source="PiAlQ7NmxUBOU-2joK4R-13" target="PiAlQ7NmxUBOU-2joK4R-32">
          <mxGeometry relative="1" as="geometry">
            <mxPoint x="499" y="557" as="targetPoint" />
          </mxGeometry>
        </mxCell>
        <mxCell id="PiAlQ7NmxUBOU-2joK4R-13" value="&lt;b&gt;Wikipedia&lt;/b&gt;" style="whiteSpace=wrap;html=1;fontSize=17;rounded=1;" vertex="1" parent="1">
          <mxGeometry x="359" y="457" width="147.5" height="60" as="geometry" />
        </mxCell>
        <mxCell id="PiAlQ7NmxUBOU-2joK4R-29" style="edgeStyle=orthogonalEdgeStyle;rounded=0;orthogonalLoop=1;jettySize=auto;html=1;" edge="1" parent="1" source="PiAlQ7NmxUBOU-2joK4R-19" target="PiAlQ7NmxUBOU-2joK4R-28">
          <mxGeometry relative="1" as="geometry" />
        </mxCell>
        <mxCell id="PiAlQ7NmxUBOU-2joK4R-19" value="&lt;b&gt;&lt;font style=&quot;font-size: 16px;&quot;&gt;Object Detection&lt;/font&gt;&lt;/b&gt;" style="rounded=1;whiteSpace=wrap;html=1;" vertex="1" parent="1">
          <mxGeometry x="372.75" y="297" width="120" height="60" as="geometry" />
        </mxCell>
        <mxCell id="PiAlQ7NmxUBOU-2joK4R-43" value="Str in JSON" style="edgeStyle=orthogonalEdgeStyle;rounded=0;orthogonalLoop=1;jettySize=auto;html=1;" edge="1" parent="1" target="PiAlQ7NmxUBOU-2joK4R-42">
          <mxGeometry x="-0.1915" y="33" relative="1" as="geometry">
            <mxPoint x="356.9950000000001" y="740.9999999999998" as="sourcePoint" />
            <Array as="points">
              <mxPoint x="357" y="810" />
              <mxPoint x="357" y="810" />
            </Array>
            <mxPoint as="offset" />
          </mxGeometry>
        </mxCell>
        <mxCell id="PiAlQ7NmxUBOU-2joK4R-22" value="Inhalt / &lt;br&gt;Content / &lt;br&gt;Caption" style="ellipse;whiteSpace=wrap;html=1;fontSize=17;rounded=1;" vertex="1" parent="1">
          <mxGeometry x="311.93" y="660" width="88.13" height="81" as="geometry" />
        </mxCell>
        <mxCell id="PiAlQ7NmxUBOU-2joK4R-30" style="edgeStyle=orthogonalEdgeStyle;rounded=0;orthogonalLoop=1;jettySize=auto;html=1;" edge="1" parent="1" source="PiAlQ7NmxUBOU-2joK4R-28" target="PiAlQ7NmxUBOU-2joK4R-13">
          <mxGeometry relative="1" as="geometry" />
        </mxCell>
        <mxCell id="PiAlQ7NmxUBOU-2joK4R-28" value="MiniGPT4" style="rounded=1;whiteSpace=wrap;html=1;" vertex="1" parent="1">
          <mxGeometry x="372.75" y="377" width="120" height="60" as="geometry" />
        </mxCell>
        <mxCell id="PiAlQ7NmxUBOU-2joK4R-33" style="edgeStyle=orthogonalEdgeStyle;rounded=0;orthogonalLoop=1;jettySize=auto;html=1;" edge="1" parent="1" source="PiAlQ7NmxUBOU-2joK4R-32" target="PiAlQ7NmxUBOU-2joK4R-22">
          <mxGeometry relative="1" as="geometry">
            <Array as="points">
              <mxPoint x="434" y="630" />
              <mxPoint x="355" y="630" />
            </Array>
          </mxGeometry>
        </mxCell>
        <mxCell id="PiAlQ7NmxUBOU-2joK4R-32" value="GPT" style="rounded=1;whiteSpace=wrap;html=1;" vertex="1" parent="1">
          <mxGeometry x="372.75" y="547" width="120" height="60" as="geometry" />
        </mxCell>
        <mxCell id="PiAlQ7NmxUBOU-2joK4R-45" value="" style="edgeStyle=orthogonalEdgeStyle;rounded=0;orthogonalLoop=1;jettySize=auto;html=1;" edge="1" parent="1" source="PiAlQ7NmxUBOU-2joK4R-42" target="PiAlQ7NmxUBOU-2joK4R-44">
          <mxGeometry relative="1" as="geometry" />
        </mxCell>
        <mxCell id="PiAlQ7NmxUBOU-2joK4R-49" value="" style="edgeStyle=orthogonalEdgeStyle;rounded=0;orthogonalLoop=1;jettySize=auto;html=1;" edge="1" parent="1" source="PiAlQ7NmxUBOU-2joK4R-42" target="PiAlQ7NmxUBOU-2joK4R-48">
          <mxGeometry relative="1" as="geometry" />
        </mxCell>
        <mxCell id="PiAlQ7NmxUBOU-2joK4R-42" value="Video Caption&lt;br&gt;Overlay&lt;br&gt;Design" style="whiteSpace=wrap;html=1;fontSize=17;rounded=1;" vertex="1" parent="1">
          <mxGeometry x="289.5" y="788" width="120" height="72" as="geometry" />
        </mxCell>
        <mxCell id="PiAlQ7NmxUBOU-2joK4R-44" value="In Video einbetten&lt;br&gt;Zeitstempel" style="whiteSpace=wrap;html=1;fontSize=17;rounded=1;" vertex="1" parent="1">
          <mxGeometry x="287" y="878" width="125" height="80" as="geometry" />
        </mxCell>
        <mxCell id="PiAlQ7NmxUBOU-2joK4R-48" value="Thumbnail?" style="whiteSpace=wrap;html=1;fontSize=17;rounded=1;" vertex="1" parent="1">
          <mxGeometry x="121.99999999999999" y="809.5" width="110.01" height="29" as="geometry" />
        </mxCell>
        <mxCell id="PiAlQ7NmxUBOU-2joK4R-50" value="&lt;h1&gt;&lt;b style=&quot;font-size: 18px;&quot;&gt;JSON&amp;nbsp;&lt;/b&gt;&lt;b style=&quot;font-size: 18px;&quot;&gt;Structure:&lt;/b&gt;&lt;/h1&gt;&lt;div&gt;&lt;b style=&quot;font-size: 18px;&quot;&gt;&lt;br&gt;&lt;/b&gt;&lt;/div&gt;" style="rounded=1;whiteSpace=wrap;html=1;verticalAlign=top;" vertex="1" parent="1">
          <mxGeometry x="580" y="270" width="260" height="350" as="geometry" />
        </mxCell>
      </root>
    </mxGraphModel>
  </diagram>
</mxfile>
